<?xml version="1.0" encoding="UTF-8"?>
<svg id="_レイヤー_1" data-name="レイヤー_1" xmlns="http://www.w3.org/2000/svg" version="1.1" xmlns:xlink="http://www.w3.org/1999/xlink" viewBox="0 0 38.4 51.7">
  <!-- Generator: Adobe Illustrator 29.7.1, SVG Export Plug-In . SVG Version: 2.1.1 Build 8)  -->
  <defs>
    <style>
      .st0 {
        fill: url(#_名称未設定グラデーション_2);
      }

      .st1 {
        fill: url(#_名称未設定グラデーション);
      }

      .st2 {
        fill: url(#_名称未設定グラデーション_4);
      }

      .st3 {
        fill: url(#_名称未設定グラデーション_3);
      }

      .st4 {
        fill: #001e60;
      }
    </style>
    <linearGradient id="_名称未設定グラデーション" data-name="名称未設定グラデーション" x1="17.1" y1="45.6" x2="25.7" y2="31.7" gradientTransform="translate(0 67.8) scale(1 -1)" gradientUnits="userSpaceOnUse">
      <stop offset="0" stop-color="#ffd900"/>
      <stop offset=".9" stop-color="#be9121"/>
      <stop offset=".9" stop-color="#ffd900"/>
    </linearGradient>
    <linearGradient id="_名称未設定グラデーション_2" data-name="名称未設定グラデーション 2" x1="9.6" y1="44.6" x2="21.5" y2="56.4" gradientTransform="translate(0 67.8) scale(1 -1)" gradientUnits="userSpaceOnUse">
      <stop offset=".3" stop-color="#ffd900"/>
      <stop offset=".8" stop-color="#be9121"/>
    </linearGradient>
    <linearGradient id="_名称未設定グラデーション_3" data-name="名称未設定グラデーション 3" x1="9.4" y1="64.8" x2="33.3" y2="22.7" gradientTransform="translate(0 67.8) scale(1 -1)" gradientUnits="userSpaceOnUse">
      <stop offset="0" stop-color="#be9121"/>
      <stop offset="0" stop-color="#ffd900"/>
      <stop offset=".3" stop-color="#ffd900"/>
      <stop offset=".5" stop-color="#be9121"/>
      <stop offset=".6" stop-color="#ffd900"/>
      <stop offset=".8" stop-color="#ffd900"/>
      <stop offset=".9" stop-color="#be9121"/>
      <stop offset="1" stop-color="#ffd900"/>
    </linearGradient>
    <linearGradient id="_名称未設定グラデーション_4" data-name="名称未設定グラデーション 4" x1="0" y1="41.9" x2="38.3" y2="41.9" gradientTransform="translate(0 67.8) scale(1 -1)" gradientUnits="userSpaceOnUse">
      <stop offset="0" stop-color="#efbe15"/>
      <stop offset="0" stop-color="#efbe15"/>
      <stop offset="0" stop-color="#f4efbc"/>
      <stop offset="0" stop-color="#f1e9b3"/>
      <stop offset="0" stop-color="#e5d18d"/>
      <stop offset=".1" stop-color="#dabb6c"/>
      <stop offset=".1" stop-color="#d0a84f"/>
      <stop offset=".1" stop-color="#c99a38"/>
      <stop offset=".2" stop-color="#c38e27"/>
      <stop offset=".2" stop-color="#bf861a"/>
      <stop offset=".2" stop-color="#bd8113"/>
      <stop offset=".3" stop-color="#bc8011"/>
      <stop offset=".5" stop-color="#f4efbc"/>
      <stop offset=".6" stop-color="#efbe15"/>
      <stop offset=".7" stop-color="#bc8011"/>
      <stop offset=".8" stop-color="#f4efbc"/>
      <stop offset=".9" stop-color="#efbe15"/>
      <stop offset="1" stop-color="#bc8011"/>
      <stop offset="1" stop-color="#bc8011"/>
    </linearGradient>
  </defs>
  <path class="st4" d="M19,3.7c-5,5.6-9,6.2-14.2,6.5q0,0-.2.1s0,.1,0,.2c.3,1.5.6,2.8.8,4.1,0,.1,0,.1,0,.2h0q0,0,0-.1c2.1-2.2,4.3-3.2,6.7-4-5.2,2.7-6.5,6.1-6.5,8.7s-.9,5.7-2.9,6.9c0,0,0,.1,0,.2,3.7,12.8,6.6,15.6,16.1,23h.2c1.8-1.4,3.6-2.9,5.2-4.2,0,0,0-.2,0-.2,0,0,0,0-.2,0h0c-1.5.5-3.2.7-5.3.7h0c4.7-.8,7.7-2.3,10-4.8h0c0,0,0-.2,0-.3,0,0,0,0-.2,0h0c-3.6,1.8-7.1,2.6-11,2.6s-1.6,0-2.4,0c7.4-.9,13.1-3.2,16.5-6.8h0v-.3h-.2c-4.2,2.8-8.3,4.2-13,4.2,2.2-.4,5.3-1.3,8.4-3.2,4.3-2.6,7.1-6.1,8.3-10.4,0-.1,0-.2,0-.2-4.1-2.4-3.2-9-1.6-15.8v-.2s0-.1-.2-.1c-5.2-.2-9.2-.8-14.2-6.5,0,0,0,0-.2,0s.4,0,.3,0"/>
  <path class="st1" d="M25.2,18.8c1.9-2.3,3-5.4,2.8-7.7.9.7,1.5,1.6,1.7,2.8.3,1.6,0,3.2-1,4.5,0,.1,0,.2,0,.2,0,.1,0,.1.2.1h0c.8-.2,1.7-1.9,2.2-3,.3,4-2.7,6.7-4.1,7.6,0,.1,0,.2,0,.2,0,.1,0,.1.2.1h0c1.3-.3,2.6-1.2,3.4-2.3-.3,1.2-1.4,3.2-4.7,4.9,0,0,0,.1,0,.2s0,.2.2.2h.3c.9,0,2.2-.7,3.1-1.3-.8,1.5-3.1,3.9-7.4,3.9h-.2q0,0-.2,0v.2c.4.6,1.1.9,1.7.9-.4,0-1,.2-1.7.2-1.2,0-3.4-.3-5.1-1.9h0c0-.1,0-.1,0-.1-.1.3-.1.4-.1.5,1.4,2.2,4.3,2.6,5.9,2.6h.2c2.7,0,5-.8,6.3-1.3-1.2,1.4-3.2,2.2-6,2.5,0,0-.2,0-.2.2s0,.2,0,.2c.3.2,1,.2,1.5.2,1,0,2.5-.2,3.5-.7-.5.6-1.4,1.3-3.1,1.4,0,0-.2,0-.2,0,0,0,0,.2,0,.2.3.2.8.3,1.2.4-.5,0-1.1.2-1.7.2s-1.5,0-2.2-.3h0q0,0,0,0t0,.2c0,.2.5.8,1.2,1.1-.3,0-.7,0-1.1,0-1,0-2-.4-3-1.1h0q0,0-.2,0h0c0,.2-.4.5-1,.6h0c-.7,0-1,.2-1.5.6,0,0,0,0,0,.2h0c-.2,0-.4.2-.7.2h-.2q0,0,0,0s0,0,0,.2h0c0,0-.2,0-.4,0-.2,0-.4,0-.6,0h-.2c-.3,0-.7.2-.9.5,0,.2,0,.4,0,.6s0,.2,0,.4c0,.3.2.8.2.9s-.2,0-.5.2c0-.2,0-.4,0-.5,0-.3-.2-1.1-2.1-1.8,0,0-.2,0-.3,0-.2,0-.3,0-.4.2,0-.3.3-.5.4-.6,0,0,0-.2,0-.2,0-.2-.3-.3-.5-.3s-.5.2-.6.5c0,.2-.2.5-.2.7,0,0,0-.2,0-.3,0-.2,0-.4.2-.7.4-.7,1.2-1,1.5-1.1.3.7.7,1.5,1.3,1.6h.2c.6,0,.8-.4,1-.7,0,0,0,0,0-.2,0-.3.2-.6.3-.9,0-.3,0-.5.2-.6.3-.3.4-1,.3-1.2,0,0,0,0-.2,0h0c0,0-.2,0-.2,0,0,.3-.2.6-.4.7h0c-.3,0-.5,0-.8.4-.3.3-.2.7-.2.9v.2h0c0-.6-.6-1.6-1.2-1.6s-.2,0-.3,0c0,0,0-.2,0-.2,0,0,0,0,0-.2s0,0,0-.2c0,0-.3-.2-.5-.2s-.2,0-.3,0h0c0-.1,0-.2,0-.3,0,0,.4-.2.6-.3.2.5.8,1.1,1.3,1.2h0c.4,0,.5-.4.7-.8,0-.3.3-.6.5-.9.4-.5.5-1.3.3-2.1-.3-1-1.1-1.9-1.9-2.1,0,0-.2-.1-.3-.1-.6,0-.9.4-1.2.9,0-.4,0-.8-.3-1.1h-.2c-.6.3-1.8,1.5-1.7,2.3h0c-.2,0-.3-.2-.4-.4-.3-.6,0-1.6,0-2,.4-.6.4-.9.4-1.1h0c0-.9.6-1.8,1.3-2.3.9-.7,2.1-.8,2.8-.8h0v.2c0,.1,0,.1.2.1h.2c.8,0,1.4.2,1.9.5,0,0,0,0,0,.1q0,.1,0,.2c0,.1,0,.1.2.1,1.9.1,2.2.2,2.7.4,0,.1.2.1.4.2.5.2,1,.3,1.4.3.9,0,1.6-.4,1.8-1.2.2-.8,0-1.6-.7-2.1-.2-.2-.8-.4-1.4-.4s-.6.1-.8.2c.4-1,1.8-1.4,3.1-1.4h.6c1.5.3,2.9-.5,4.2-2"/>
  <path class="st0" d="M9.4,21.1c0-.3.5-.4.9-.5q0,0,0-.1v-.2c-.9-3.4,1.7-5.3,4.2-7.2,1.5-1.1,2.8-2.1,3.6-3.4,0,1.6-1,3.3-2.5,4.3,0,.1,0,.2,0,.2,0,.1,0,.1.2.1h0c1.2-.2,1.9-.5,2.8-1.7-.3,1.8-.8,2.1-1.7,2.7,0,.1-.2.2-.4.3q0,.1,0,.2c0,.1,0,.1.2.2h.5c.5,0,.9-.1,1.3-.3-.6.5-1.6.8-2.2,1-.2.1-.4.1-.6.2,0,0,0,.1,0,.2s0,.1.2.1h0c.3-.1.7-.1,1-.1,1.1,0,2.1.4,2.7,1,.2.2.3.4.4.6-.5-.3-1.2-.5-2-.5s-1.9.1-2.7,1.1c-.9,1.2-1,3.1-.6,4.3-.4-.2-.9-.4-1.5-.5,0-.1-.2-.1-.4-.2-.3-.1-1.2-.1-1.5-.1h0c-.3-1.8-1.1-2-1.3-2-.3,0-.5.2-.7.5.2,0,.3-.1.3-.2"/>
  <path class="st3" d="M19,3.7c-5,5.6-9,6.2-14.2,6.5q0,0-.2.1s0,.1,0,.2c.3,1.5.6,2.8.8,4.1,0,.1,0,.1,0,.2h0q0,0,0-.1c2.1-2.2,4.3-3.2,6.7-4-5.2,2.7-6.5,6.1-6.5,8.7s-.9,5.7-2.9,6.9c0,0,0,.1,0,.2,3.7,12.8,6.6,15.6,16.1,23h.2c1.8-1.4,3.6-2.9,5.2-4.2,0,0,0-.2,0-.2,0,0,0,0-.2,0h0c-1.5.5-3.2.7-5.3.7h0c4.7-.8,7.7-2.3,10-4.8h0c0,0,0-.2,0-.3,0,0,0,0-.2,0h0c-3.6,1.8-7.1,2.6-11,2.6s-1.6,0-2.4,0c7.4-.9,13.1-3.2,16.5-6.8h0v-.3h-.2c-4.2,2.8-8.3,4.2-13,4.2,2.2-.4,5.3-1.3,8.4-3.2,4.3-2.6,7.1-6.1,8.3-10.4,0-.1,0-.2,0-.2-4.1-2.4-3.2-9-1.6-15.8v-.2s0-.1-.2-.1c-5.2-.2-9.2-.8-14.2-6.5,0,0,0,0-.2,0s.4,0,.3,0M.3,26.4c2.1-.9,3.2-2.8,3.3-5.8,0-2.8-.5-6.5-2-12.2,6.9-.2,11.6-.8,17.6-8,6,7.2,10.7,7.8,17.6,8.1-1.5,5.6-2.2,9.4-2,12.2,0,3,1.2,4.9,3.3,5.8-4.6,14.2-7.8,17-18.9,25C8,43.4,4.9,40.6.3,26.4"/>
  <path class="st2" d="M16.4,36.6h0ZM26.4,34.8h0ZM28.3,32h0ZM24.4,30.3h0ZM29.4,29.8h0ZM30,24.6h0ZM19.3,15.2h0ZM19,12.1h0ZM9.4,29.8h0M25.2,18.8c1.9-2.3,3-5.4,2.8-7.7.9.7,1.5,1.6,1.7,2.8.3,1.6,0,3.2-1,4.5,0,.1,0,.2,0,.2,0,.1,0,.1.2.1h0c.8-.2,1.7-1.9,2.2-3,.3,4-2.7,6.7-4.1,7.6,0,.1,0,.2,0,.2,0,.1,0,.1.2.1h0c1.3-.3,2.6-1.2,3.4-2.3-.3,1.2-1.4,3.2-4.7,4.9,0,0,0,.1,0,.2s0,.2.2.2h.3c.9,0,2.2-.7,3.1-1.3-.8,1.5-3.1,3.9-7.4,3.9h-.2q0,0-.2,0v.2c.4.6,1.1.9,1.7.9-.4,0-1,.2-1.7.2-1.2,0-3.4-.3-5.1-1.9h0c0-.1,0-.1,0-.1-.1.3-.1.4-.1.5,1.4,2.2,4.3,2.6,5.9,2.6h.2c2.7,0,5-.8,6.3-1.3-1.2,1.4-3.2,2.2-6,2.5,0,0-.2,0-.2.2s0,.2,0,.2c.3.2,1,.2,1.5.2,1,0,2.5-.2,3.5-.7-.5.6-1.4,1.3-3.1,1.4,0,0-.2,0-.2,0,0,0,0,.2,0,.2.3.2.8.3,1.2.4-.5,0-1.1.2-1.7.2s-1.5,0-2.2-.3h0q0,0,0,0t0,.2c0,.2.5.8,1.2,1.1-.3,0-.7,0-1.1,0-1,0-2-.4-3-1.1h0q0,0-.2,0h0c0,.2-.4.5-1,.6h0c-.7,0-1,.2-1.5.6,0,0,0,0,0,.2h0c-.2,0-.4.2-.7.2h-.2q0,0,0,0s0,0,0,.2h0c0,0-.2,0-.4,0-.2,0-.4,0-.6,0h-.2c-.3,0-.7.2-.9.5,0,.2,0,.4,0,.6s0,.2,0,.4c0,.3.2.8.2.9s-.2,0-.5.2c0-.2,0-.4,0-.5,0-.3-.2-1.1-2.1-1.8,0,0-.2,0-.3,0-.2,0-.3,0-.4.2,0-.3.3-.5.4-.6,0,0,0-.2,0-.2,0-.2-.3-.3-.5-.3s-.5.2-.6.5c0,.2-.2.5-.2.7,0,0,0-.2,0-.3,0-.2,0-.4.2-.7.4-.7,1.2-1,1.5-1.1.3.7.7,1.5,1.3,1.6h.2c.6,0,.8-.4,1-.7,0,0,0,0,0-.2,0-.3.2-.6.3-.9,0-.3,0-.5.2-.6.3-.3.4-1,.3-1.2,0,0,0,0-.2,0h0c0,0-.2,0-.2,0,0,.3-.2.6-.4.7h0c-.3,0-.5,0-.8.4-.3.3-.2.7-.2.9v.2h0c0-.6-.6-1.6-1.2-1.6s-.2,0-.3,0c0,0,0-.2,0-.2,0,0,0,0,0-.2s0,0,0-.2c0,0-.3-.2-.5-.2s-.2,0-.3,0h0c0-.1,0-.2,0-.3,0,0,.4-.2.6-.3.2.5.8,1.1,1.3,1.2h0c.4,0,.5-.4.7-.8,0-.3.3-.6.5-.9.4-.5.5-1.3.3-2.1-.3-1-1.1-1.9-1.9-2.1,0,0-.2-.1-.3-.1-.6,0-.9.4-1.2.9,0-.4,0-.8-.3-1.1h-.2c-.6.3-1.8,1.5-1.7,2.3h0c-.2,0-.3-.2-.4-.4-.3-.6,0-1.6,0-2,.4-.6.4-.9.4-1.1h0c0-.9.6-1.8,1.3-2.3.9-.7,2.1-.8,2.8-.8h0v.2c0,.1,0,.1.2.1h.2c.8,0,1.4.2,1.9.5,0,0,0,0,0,.1q0,.1,0,.2c0,.1,0,.1.2.1,1.9.1,2.2.2,2.7.4,0,.1.2.1.4.2.5.2,1,.3,1.4.3.9,0,1.6-.4,1.8-1.2.2-.8,0-1.6-.7-2.1-.2-.2-.8-.4-1.4-.4s-.6.1-.8.2c.4-1,1.8-1.4,3.1-1.4h.6c1.5.3,2.9-.5,4.2-2M21.3,20.9h-.5c-1.8,0-3.4.7-3.4,2.1.3-.4.8-.6,1.2-.6s1.1.2,1.3.4c1.2.8.9,2.9-1,2.9s-.8-.1-1.4-.3c-.8-.3-.8-.5-3.1-.6,0-.1.3-.1.5-.1h0c-.7-.4-1.4-.8-2.5-.8h-.2c0-.1.3-.2.8-.2,0,0-.4-.1-1-.1s-2,.2-2.9.8c-.8.6-1.3,1.5-1.4,2.4,0,.3,0,.4-.4,1.1s-.7,2.8,1.1,2.8h0c-1.5-.2.3-2.1,1-2.4.4.3.3.9,0,1.2,0-.2-.2-.4-.7-.4.5.3.5.7.5,1,.4,0,.8-1.5,1.7-1.5h.3c1.4.4,2.4,2.7,1.5,3.9-.6.7-.7,1.6-1.1,1.6h0c-.4,0-1.1-.7-1.2-1.2-.2,0-.7.2-.9.3-.3.3-.2,1.2.2,1.5,0-.8,0-1,.2-1s.3,0,.3.2c-.2.2-.4.8-.2,1.2,0-.5.3-.7.4-.7.5,0,1.3,1.5.8,1.5,0,0,0,0-.2,0,0,0,.2.2.4.2h.2c.3,0,0-.8.3-1.2.2-.3.4-.4.6-.4h.2c.2-.2.4-.5.5-.9,0,0,0,.7-.2,1-.3.3-.3,1-.6,1.6s-.3.8-.9.8h0c-.7,0-1.2-1.6-1.2-1.7,0,0-1.2.3-1.8,1.2s.3,1.6.5,1.8c-.5-.9,0-1.7.4-1.7s.2,0,.3.2c-.3.3-.8,1.2-.3,2.1,0-1.1.2-1.3.5-1.3h.2c1.8.6,1.9,1.4,1.9,1.6s0,.6-.5.6h0c0,0,.3,0,.4,0,.4,0,.8,0,.9-.3.2-.2,0-1-.2-1.4,0-.4.4-.8.8-.9h.2c.3,0,.7.2,1.1.2s.3,0,.4,0c-.3,0-.4-.2-.4-.2h.2c.5,0,1.2,0,1.5-.4-.2,0-.3,0-.4,0h-.2c.5-.4.8-.4,1.5-.6.7,0,1-.5,1.1-.7,1.2.9,2.2,1.1,3.1,1.1s1.6-.3,1.9-.4c-1.1,0-1.6-.9-1.7-1.2.8.2,1.5.3,2.2.3,1.1,0,2-.2,2.5-.6h-.2c-.6,0-1.4,0-1.7-.4,2.4-.2,3.5-1.6,3.8-2.4-.6.9-2.7,1.3-4.2,1.3s-1.1,0-1.4-.2c4.9-.5,6.2-2.7,6.6-3.3-.8.5-3.7,1.7-7,1.7h-.2c-3.4,0-5-1.4-5.8-2.5,1.6,1.5,3.6,2,5.2,2s2.5-.3,2.7-.6c-.2,0-.4,0-.6,0-.7,0-1.5-.3-2-.9h.2c5.1,0,7.5-3.3,8-4.9-.7.8-2.5,1.9-3.7,1.9h-.3c4.6-2.3,5-5.4,5-6.1-.7,1.5-2.2,2.7-3.8,3.1,1.4-1,4.8-4,4.1-8.5-.9,2-1.8,3.4-2.4,3.6,1.7-2.4,1.5-6.2-1.2-7.9.8,4.1-3.1,10.2-6.3,10.2M9.4,21.1c0-.3.5-.4.9-.5q0,0,0-.1v-.2c-.9-3.4,1.7-5.3,4.2-7.2,1.5-1.1,2.8-2.1,3.6-3.4,0,1.6-1,3.3-2.5,4.3,0,.1,0,.2,0,.2,0,.1,0,.1.2.1h0c1.2-.2,1.9-.5,2.8-1.7-.3,1.8-.8,2.1-1.7,2.7,0,.1-.2.2-.4.3q0,.1,0,.2c0,.1,0,.1.2.2h.5c.5,0,.9-.1,1.3-.3-.6.5-1.6.8-2.2,1-.2.1-.4.1-.6.2,0,0,0,.1,0,.2s0,.1.2.1h0c.3-.1.7-.1,1-.1,1.1,0,2.1.4,2.7,1,.2.2.3.4.4.6-.5-.3-1.2-.5-2-.5s-1.9.1-2.7,1.1c-.9,1.2-1,3.1-.6,4.3-.4-.2-.9-.4-1.5-.5,0-.1-.2-.1-.4-.2-.3-.1-1.2-.1-1.5-.1h0c-.3-1.8-1.1-2-1.3-2-.3,0-.5.2-.7.5.2,0,.3-.1.3-.2M10.4,20.4c-1.7.2-1.2,1.6-1,1.9,0-.6.4-1,.7-1s.9.6,1.1,2h.2c.4,0,1.2,0,1.5.1s.4.2.4.2c1.3.2,1.9.8,2.1.9-.7-.9-.8-3.3.3-4.7.6-.8,1.6-1.1,2.5-1.1s2,.3,2.3.8c0-1.1-1.4-2.3-3.4-2.3s-.7,0-1,.1c.5-.3,3-.7,3.3-2.1-.7.7-1.4.8-2,.8h-.5c1.3-.9,1.9-1.1,2.2-3.9-1.2,1.6-1.7,2-3.1,2.2,1.8-1.2,2.9-3.3,2.5-5.3-1.3,4-9.7,5.6-8.1,11.4M4.8,10.4c5.5-.3,9.4-1,14.3-6.5,4.9,5.5,8.8,6.3,14.3,6.5-1.8,8-2.1,13.7,1.7,16-2.6,9.7-13,13.2-18.8,13.8.6,0,1.2,0,1.8,0,4.9,0,9.2-1.4,13.6-4.3h0c-3.8,4.1-10.5,6.3-18.2,6.9,1.5.2,3,.3,4.3.3,4.6,0,8.1-1.1,11.1-2.6h0c-2.3,2.5-5.5,4.3-12.1,5.1.8,0,1.6,0,2.3,0,2.1,0,3.8-.2,5.3-.7-1.5,1.3-3.2,2.6-5.2,4.2-9.8-7.6-12.5-10.3-16-22.9,2.2-1.3,3-3.7,3-7,0-6.3,7.2-9,9.5-9.8-3.8,1-7,1.8-10,5-.2-1.3-.5-2.7-.9-4.2M19,3.7c-5,5.6-9,6.2-14.2,6.5q0,0-.2.1s0,.1,0,.2c.3,1.5.6,2.8.8,4.1,0,.1,0,.1,0,.2h0q0,0,0-.1c2.1-2.2,4.3-3.2,6.7-4-5.2,2.7-6.5,6.1-6.5,8.7s-.9,5.7-2.9,6.9c0,0,0,.1,0,.2,3.7,12.8,6.6,15.6,16.1,23h.2c1.8-1.4,3.6-2.9,5.2-4.2,0,0,0-.2,0-.2,0,0,0,0-.2,0h0c-1.5.5-3.2.7-5.3.7h0c4.7-.8,7.7-2.3,10-4.8h0c0,0,0-.2,0-.3,0,0,0,0-.2,0h0c-3.6,1.8-7.1,2.6-11,2.6s-1.6,0-2.4,0c7.4-.9,13.1-3.2,16.5-6.8h0v-.3h-.2c-4.2,2.8-8.3,4.2-13,4.2,2.2-.4,5.3-1.3,8.4-3.2,4.3-2.6,7.1-6.1,8.3-10.4,0-.1,0-.2,0-.2-4.1-2.4-3.2-9-1.6-15.8v-.2s0-.1-.2-.1c-5.2-.2-9.2-.8-14.2-6.5,0,0,0,0-.2,0s.4,0,.3,0M.3,26.4c2.1-.9,3.2-2.8,3.3-5.8,0-2.8-.5-6.5-2-12.2,6.9-.2,11.6-.8,17.6-8,6,7.2,10.7,7.8,17.6,8.1-1.5,5.6-2.2,9.4-2,12.2,0,3,1.2,4.9,3.3,5.8-4.6,14.2-7.8,17-18.9,25C8,43.4,4.9,40.6.3,26.4M1.3,8.2c2.9,10.6,3.1,16.4-1.3,18.1,4.7,14.5,7.8,17.2,19.2,25.4,11.4-8.2,14.5-10.8,19.2-25.4-4.4-1.7-4.2-7.5-1.3-18.1-7-.2-11.7-.7-17.9-8.2C13,7.6,8.3,8,1.3,8.2"/>
</svg>