<?xml version="1.0" encoding="utf-8"?>
<!-- Generator: Adobe Illustrator 25.0.0, SVG Export Plug-In . SVG Version: 6.00 Build 0)  -->
<svg version="1.1" id="レイヤー_1" xmlns="http://www.w3.org/2000/svg" xmlns:xlink="http://www.w3.org/1999/xlink" x="0px"
	 y="0px" viewBox="0 0 100 72.6" style="enable-background:new 0 0 100 72.6;" xml:space="preserve">
<style type="text/css">
	.st0{fill:#FFFFFF;}
	.st1{fill:#001E60;}
	.st2{fill:url(#SVGID_2_);}
	.st3{fill:url(#SVGID_3_);}
	.st4{fill:url(#SVGID_4_);}
	.st5{fill:url(#SVGID_6_);}
</style>
<g>
	<path class="st0" d="M64.3,68.4l0.8-2.1h-6.6l0.7-1.8h6.9l0.8-2.3h-9.1c-0.7,0-1.1,0.2-1.4,1L53,72.5h10.6l0.8-2.3h-7.3l0.7-1.8
		H64.3z M84.5,62.2c-0.7,0-1.1,0.2-1.4,1l-3.4,9.3h3.4l3.8-10.3H84.5z M48.5,62.2h-2.3c-0.7,0-1.1,0.2-1.4,1l-3.4,9.3h10.2l0.9-2.4
		h-6.9L48.5,62.2z M37,62.2h-2.3c-0.7,0-1.1,0.2-1.4,1l-3.4,9.3h10.2l0.9-2.4H34L37,62.2z M14.9,66.3H8l-0.8,2.1h3.6l-0.3,0.7
		c-0.4,0.9-0.8,1.1-2.1,1.1H5.1c-1.4,0-1.8-0.5-1.4-1.6l1.5-4h8.5l2.1-2.4H3.8c-0.7,0-1.1,0.2-1.4,1l-2.1,5.7
		c-0.7,1.9,0.1,3.7,2.7,3.7h5.6c3.4,0,4.2-0.3,5.2-3L14.9,66.3z M96.5,72.5h3.5l-2.7-10.3h-2.7c-0.7,0-1.3,0.1-2,0.9l-8.2,9.4h8.7
		l1.9-2.2h-5.1l4.8-5.7L96.5,72.5z M23.5,62.2c-0.7,0-1.3,0.1-2,0.9l-8.2,9.4H22l1.9-2.2h-5.1l4.8-5.7l1.9,7.8h3.5l-2.7-10.3H23.5z
		 M77.5,62.2h-7.2c-0.7,0-1.1,0.2-1.4,1l-3.4,9.3h3.3l2.9-7.9h3.8c0.9,0,1.1,0.2,0.8,1.1l-0.2,0.7c-0.3,0.8-0.8,0.9-2,0.9h-2.4
		l2.5,5.3h3.6l-2.1-3.3c1.9-0.1,2.7-0.6,3.3-2.3l0.7-1.8C80.6,62.7,79.3,62.2,77.5,62.2z"/>
	<g>
		<path class="st1" d="M49.8,6.8c-5,5.6-9,6.2-14.2,6.5c-0.1,0-0.1,0-0.2,0.1c0,0-0.1,0.1,0,0.2c0.3,1.5,0.6,2.8,0.8,4.1
			c0,0.1,0.1,0.1,0.1,0.2c0,0,0,0,0.1,0c0.1,0,0.1,0,0.1-0.1c2.1-2.2,4.3-3.2,6.7-4c-5.2,2.7-6.5,6.1-6.5,8.7c0,3.5-0.9,5.7-2.9,6.9
			c-0.1,0-0.1,0.1-0.1,0.2c3.7,12.8,6.6,15.6,16.1,23c0,0,0.1,0,0.1,0c0,0,0.1,0,0.1,0c1.8-1.4,3.6-2.9,5.2-4.2
			c0.1-0.1,0.1-0.2,0-0.2c0-0.1-0.1-0.1-0.2-0.1c0,0,0,0-0.1,0c-1.5,0.5-3.2,0.7-5.3,0.7h-0.1c4.7-0.8,7.7-2.3,10-4.8c0,0,0,0,0,0
			c0.1-0.1,0.1-0.2,0-0.3c0-0.1-0.1-0.1-0.2-0.1c0,0-0.1,0-0.1,0c-3.6,1.8-7.1,2.6-11,2.6c-0.8,0-1.6,0-2.4-0.1
			c7.4-0.9,13.1-3.2,16.5-6.8c0,0,0,0,0-0.1c0-0.1,0-0.2,0-0.2c0,0-0.1,0-0.1,0c0,0-0.1,0-0.1,0c-4.2,2.8-8.3,4.2-13,4.2
			c2.2-0.4,5.3-1.3,8.4-3.2c4.3-2.6,7.1-6.1,8.3-10.4c0-0.1,0-0.2-0.1-0.2c-4.1-2.4-3.2-9-1.6-15.8c0-0.1,0-0.1,0-0.2
			c0,0-0.1-0.1-0.2-0.1c-5.2-0.2-9.2-0.8-14.2-6.5c0,0-0.1-0.1-0.2-0.1S49.9,6.8,49.8,6.8"/>
		<g>
			<defs>
				<path id="SVGID_5_" d="M51.9,24c-1.9-0.1-3.7,0.6-3.8,2.1c0.8-1,2.1-0.4,2.4-0.2c1.4,1,0.7,3.8-2.4,2.6
					c-0.8-0.3-0.8-0.5-3.1-0.6c0.1-0.1,0.3-0.1,0.5-0.1c-0.7-0.5-1.5-0.8-2.8-0.8c0.1-0.1,0.3-0.2,0.8-0.2c0-0.1-2.3-0.5-3.9,0.7
					c-0.8,0.6-1.3,1.5-1.4,2.4c0,0.3,0,0.4-0.4,1.1c-0.4,0.7-0.7,2.9,1.2,2.8c-1.5-0.2,0.3-2.1,1-2.4c0.4,0.3,0.3,0.9,0.1,1.2
					c-0.1-0.2-0.2-0.4-0.7-0.4c0.5,0.3,0.5,0.7,0.5,1c0.4-0.1,0.9-1.8,1.9-1.5c1.4,0.4,2.4,2.7,1.5,3.9c-0.6,0.7-0.7,1.7-1.1,1.6
					c-0.4-0.1-1.1-0.7-1.2-1.2c-0.2,0-0.7,0.2-0.9,0.3c-0.3,0.3-0.2,1.2,0.2,1.5c-0.2-1.3,0.3-1.1,0.6-0.9c-0.2,0.2-0.4,0.8-0.2,1.2
					c0.2-1.2,0.9-0.6,1.2,0c0.2,0.4,0.3,0.9-0.2,0.7c0.1,0.2,0.3,0.2,0.6,0.2c0.3-0.1-0.1-0.8,0.3-1.2c0.3-0.3,0.6-0.4,0.8-0.3
					c0.2-0.2,0.4-0.5,0.5-0.9c0.1,0.1,0,0.7-0.2,1c-0.3,0.3-0.3,1-0.6,1.6c-0.2,0.4-0.3,0.9-1,0.8c-0.7-0.1-1.2-1.6-1.2-1.7
					c-0.1,0-1.2,0.3-1.8,1.2c-0.6,0.9,0.3,1.6,0.5,1.8c-0.7-1.1,0.3-2.1,0.7-1.5c-0.3,0.3-0.8,1.2-0.3,2.1c-0.1-1.5,0.5-1.3,0.7-1.2
					c1.8,0.6,1.9,1.4,1.9,1.6c0,0.2,0,0.6-0.6,0.6c0.4,0.2,1.2,0,1.3-0.2c0.2-0.2-0.1-1-0.2-1.4c-0.1-0.4,0.4-0.8,0.8-0.9
					c0.2,0,0.4,0,0.7,0.1c0.3,0.1,0.7,0.1,1,0c-0.3-0.1-0.4-0.2-0.4-0.2c0.5,0,1.4,0,1.7-0.4c-0.2,0.1-0.4,0.1-0.6,0.1
					c0.5-0.4,0.8-0.4,1.5-0.6c0.7-0.1,1-0.5,1.1-0.7c2.4,1.8,4.4,0.9,5,0.7c-1.1-0.1-1.6-0.9-1.7-1.2c1.9,0.6,3.9,0.3,4.8-0.3
					c-0.6,0-1.6-0.1-1.9-0.4c2.4-0.2,3.5-1.6,3.8-2.4c-0.8,1.2-4.7,1.6-5.6,1.1c4.9-0.5,6.2-2.7,6.6-3.3c-0.8,0.5-3.8,1.8-7.2,1.7
					c-3.4-0.1-5-1.4-5.8-2.5c2.9,2.9,7.5,2,8,1.4c-0.7,0.2-1.9,0-2.6-0.8c5.2,0.1,7.7-3.3,8.2-4.9c-0.8,0.9-2.9,2.1-4,1.8
					c4.6-2.3,5-5.4,5-6.1c-0.7,1.5-2.2,2.7-3.8,3.1c1.4-1,4.8-4,4.1-8.5c-0.9,2-1.8,3.4-2.4,3.6c1.7-2.4,1.5-6.2-1.2-7.9
					C59.2,17.9,55.2,24.2,51.9,24 M41.2,23.5c-1.7,0.2-1.2,1.6-1,1.9c0.2-1.5,1.4-1.5,1.8,0.9c0.3,0,1.4,0,1.7,0.1
					c0.3,0.1,0.4,0.2,0.4,0.2c1.3,0.2,1.9,0.8,2.1,0.9c-0.7-0.9-0.8-3.3,0.3-4.7c1.3-1.6,4.2-1.1,4.8-0.3c0-1.3-1.8-2.6-4.4-2.2
					c0.5-0.3,3-0.7,3.3-2.1c-0.9,0.9-2,0.8-2.5,0.8c1.3-0.9,1.9-1.1,2.2-3.9c-1.2,1.6-1.7,2-3.1,2.2c1.8-1.2,2.9-3.3,2.5-5.3
					C48,16.1,39.6,17.7,41.2,23.5 M35.6,13.5c5.5-0.3,9.4-1,14.3-6.5c4.9,5.5,8.8,6.3,14.3,6.5c-1.8,8-2.1,13.7,1.7,16
					c-2.6,9.7-13,13.2-18.8,13.8c5.7,0.4,10.5-1,15.4-4.2c0,0,0,0,0,0C58.7,43.2,52,45.4,44.3,46c6.8,1,11.5-0.4,15.4-2.3
					c0,0,0,0,0,0c-2.3,2.5-5.5,4.3-12.1,5.1c3.3,0.2,5.6,0,7.7-0.6c-1.5,1.3-3.2,2.6-5.2,4.2c-9.8-7.6-12.5-10.3-16-22.9
					c2.2-1.3,3-3.7,3-7c0.1-6.3,7.2-9,9.5-9.8c-3.8,1-7,1.8-10,5C36.3,16.4,36,15,35.6,13.5 M32.1,11.3c2.9,10.6,3.1,16.4-1.3,18.1
					c4.7,14.5,7.8,17.2,19.2,25.4c11.4-8.2,14.5-10.8,19.2-25.4c-4.4-1.7-4.2-7.5-1.3-18.1c-7-0.2-11.7-0.7-17.9-8.2
					C43.8,10.7,39.1,11.1,32.1,11.3"/>
			</defs>
			<clipPath id="SVGID_1_">
				<use xlink:href="#SVGID_5_"  style="overflow:visible;"/>
			</clipPath>
		</g>
		<linearGradient id="SVGID_2_" gradientUnits="userSpaceOnUse" x1="47.9889" y1="25.2563" x2="56.5287" y2="39.1569">
			<stop  offset="0" style="stop-color:#FFD900"/>
			<stop  offset="0.9242" style="stop-color:#BE9121"/>
			<stop  offset="0.9427" style="stop-color:#FFD900"/>
		</linearGradient>
		<path class="st2" d="M56,21.9c1.9-2.3,3-5.4,2.8-7.7c0.9,0.7,1.5,1.6,1.7,2.8c0.3,1.6,0,3.2-1,4.5c-0.1,0.1-0.1,0.2,0,0.2
			c0,0.1,0.1,0.1,0.2,0.1c0,0,0,0,0.1,0c0.8-0.2,1.7-1.9,2.2-3c0.3,4-2.7,6.7-4.1,7.6c-0.1,0.1-0.1,0.2-0.1,0.2
			c0,0.1,0.1,0.1,0.2,0.1c0,0,0,0,0,0c1.3-0.3,2.6-1.2,3.4-2.3c-0.3,1.2-1.4,3.2-4.7,4.9c-0.1,0-0.1,0.1-0.1,0.2
			c0,0.1,0.1,0.2,0.2,0.2c0.1,0,0.2,0,0.3,0c0.9,0,2.2-0.7,3.1-1.3c-0.8,1.5-3.1,3.9-7.4,3.9c-0.1,0-0.1,0-0.2,0h0
			c-0.1,0-0.1,0-0.2,0.1c0,0.1,0,0.2,0,0.2c0.4,0.6,1.1,0.9,1.7,0.9c-0.4,0.1-1,0.2-1.7,0.2c-1.2,0-3.4-0.3-5.1-1.9
			c0,0-0.1-0.1-0.1-0.1c0,0-0.1,0-0.1,0C47,32,47,32.1,47,32.2c1.4,2.2,4.3,2.6,5.9,2.6c0.1,0,0.2,0,0.2,0c2.7,0,5-0.8,6.3-1.3
			c-1.2,1.4-3.2,2.2-6,2.5c-0.1,0-0.2,0.1-0.2,0.2c0,0.1,0,0.2,0.1,0.2c0.3,0.2,1,0.2,1.5,0.2c1,0,2.5-0.2,3.5-0.7
			c-0.5,0.6-1.4,1.3-3.1,1.4c-0.1,0-0.2,0.1-0.2,0.1c0,0.1,0,0.2,0.1,0.2c0.3,0.2,0.8,0.3,1.2,0.4c-0.5,0.1-1.1,0.2-1.7,0.2
			c-0.7,0-1.5-0.1-2.2-0.3c0,0,0,0-0.1,0c-0.1,0-0.1,0-0.1,0.1c-0.1,0.1-0.1,0.1,0,0.2c0.1,0.2,0.5,0.8,1.2,1.1
			c-0.3,0.1-0.7,0.1-1.1,0.1c-1,0-2-0.4-3-1.1c0,0-0.1,0-0.1,0c-0.1,0-0.1,0-0.2,0.1l0,0c-0.1,0.2-0.4,0.5-1,0.6L48,39
			c-0.7,0.1-1,0.2-1.5,0.6c-0.1,0-0.1,0.1-0.1,0.2c0,0,0,0,0,0.1c-0.2,0-0.4,0.1-0.7,0.1c-0.1,0-0.1,0-0.2,0h0c-0.1,0-0.1,0-0.1,0.1
			c0,0-0.1,0.1-0.1,0.2c0,0,0,0.1,0,0.1c-0.1,0-0.2,0-0.4-0.1c-0.2,0-0.4-0.1-0.6-0.1c-0.1,0-0.1,0-0.2,0c-0.3,0.1-0.7,0.2-0.9,0.5
			c-0.1,0.2-0.1,0.4-0.1,0.6c0,0.1,0.1,0.2,0.1,0.4c0.1,0.3,0.2,0.8,0.2,0.9c0,0.1-0.2,0.1-0.5,0.2c0.1-0.2,0.1-0.4,0.1-0.5
			c0-0.3-0.2-1.1-2.1-1.8c-0.1,0-0.2-0.1-0.3-0.1c-0.2,0-0.3,0.1-0.4,0.2c0.1-0.3,0.3-0.5,0.4-0.6c0.1-0.1,0.1-0.2,0-0.2
			c-0.1-0.2-0.3-0.3-0.5-0.3c-0.2,0-0.5,0.2-0.6,0.5c-0.1,0.2-0.2,0.5-0.2,0.7c0-0.1-0.1-0.2-0.1-0.3c0-0.2,0-0.4,0.2-0.7
			c0.4-0.7,1.2-1,1.5-1.1c0.3,0.7,0.7,1.5,1.3,1.6c0.1,0,0.1,0,0.2,0c0.6,0,0.8-0.4,1-0.7c0-0.1,0.1-0.1,0.1-0.2
			c0.1-0.3,0.2-0.6,0.3-0.9c0.1-0.3,0.1-0.5,0.2-0.6c0.3-0.3,0.4-1,0.3-1.2c0-0.1-0.1-0.1-0.2-0.1h0c-0.1,0-0.2,0.1-0.2,0.1
			c-0.1,0.3-0.2,0.6-0.4,0.7c0,0-0.1,0-0.1,0c-0.3,0-0.5,0.1-0.8,0.4c-0.3,0.3-0.2,0.7-0.2,0.9c0,0.1,0,0.2,0,0.2c0,0,0,0,0,0
			c0,0,0-0.1,0-0.1c0-0.5-0.6-1.5-1.2-1.5c-0.1,0-0.2,0-0.3,0.1c0-0.1,0.1-0.2,0.1-0.2c0,0,0.1-0.1,0.1-0.2c0-0.1,0-0.1-0.1-0.2
			c-0.1-0.1-0.3-0.2-0.5-0.2c-0.1,0-0.2,0.1-0.3,0.1c0,0-0.1,0.1-0.1,0.1c0-0.2,0.1-0.3,0.1-0.4c0.1-0.1,0.4-0.2,0.6-0.3
			c0.2,0.5,0.8,1.1,1.3,1.2c0,0,0,0,0.1,0c0.4,0,0.5-0.4,0.7-0.8c0.1-0.3,0.3-0.6,0.5-0.9c0.4-0.5,0.5-1.3,0.3-2.1
			c-0.3-1-1.1-1.9-1.9-2.1c-0.1,0-0.2-0.1-0.3-0.1c-0.6,0-0.9,0.4-1.2,0.9c0.1-0.4,0-0.8-0.3-1.1c0,0-0.1,0-0.1,0c0,0-0.1,0-0.1,0
			c-0.6,0.3-1.8,1.5-1.7,2.3c0,0,0,0,0,0c-0.2-0.1-0.3-0.2-0.4-0.4c-0.3-0.6-0.1-1.6,0.1-2c0.4-0.6,0.4-0.9,0.4-1.1c0,0,0-0.1,0-0.1
			c0.1-0.8,0.6-1.7,1.3-2.2c0.9-0.7,2.1-0.8,2.8-0.8c0,0,0,0,0.1,0c0,0,0,0.1,0,0.2c0,0.1,0.1,0.1,0.2,0.1h0c0.1,0,0.2,0,0.2,0
			c0.8,0,1.4,0.2,1.9,0.5c0,0-0.1,0-0.1,0.1c-0.1,0.1-0.1,0.1-0.1,0.2c0,0.1,0.1,0.1,0.2,0.1c1.9,0.1,2.2,0.2,2.7,0.4
			c0.1,0.1,0.2,0.1,0.4,0.2c0.5,0.2,1,0.3,1.4,0.3c0.9,0,1.6-0.4,1.8-1.2c0.2-0.8,0-1.6-0.7-2.1c-0.2-0.2-0.8-0.4-1.4-0.4
			c-0.3,0-0.6,0.1-0.8,0.2c0.4-1,1.8-1.4,3.1-1.4c0.1,0,0.2,0,0.4,0c0.1,0,0.1,0,0.2,0C53.3,24.2,54.7,23.4,56,21.9"/>
		<linearGradient id="SVGID_3_" gradientUnits="userSpaceOnUse" x1="40.5947" y1="26.4919" x2="52.5473" y2="14.7444">
			<stop  offset="0.2891" style="stop-color:#FFD900"/>
			<stop  offset="0.7931" style="stop-color:#BE9121"/>
		</linearGradient>
		<path class="st3" d="M40.2,24.2c0.1-0.3,0.5-0.4,0.9-0.5c0.1,0,0.1,0,0.1-0.1c0,0,0-0.1,0-0.2c-0.9-3.4,1.7-5.3,4.2-7.2
			c1.5-1.1,2.8-2.1,3.6-3.4c0,1.6-1,3.3-2.5,4.3c-0.1,0.1-0.1,0.2-0.1,0.2c0,0.1,0.1,0.1,0.2,0.1c0,0,0,0,0,0
			c1.2-0.2,1.9-0.5,2.8-1.7c-0.3,1.8-0.8,2.1-1.7,2.7c-0.1,0.1-0.2,0.2-0.4,0.3c-0.1,0.1-0.1,0.1-0.1,0.2c0,0.1,0.1,0.1,0.2,0.2
			c0.1,0,0.3,0,0.5,0c0.5,0,0.9-0.1,1.3-0.3c-0.6,0.5-1.6,0.8-2.2,1c-0.2,0.1-0.4,0.1-0.6,0.2c-0.1,0-0.1,0.1-0.1,0.2
			c0,0.1,0.1,0.1,0.2,0.1c0,0,0,0,0,0c0.3-0.1,0.7-0.1,1-0.1c1.1,0,2.1,0.4,2.7,1c0.2,0.2,0.3,0.4,0.4,0.6c-0.5-0.3-1.2-0.5-2-0.5
			c-0.7,0-1.9,0.1-2.7,1.1c-0.9,1.2-1,3.1-0.6,4.3c-0.4-0.2-0.9-0.4-1.5-0.5c-0.1-0.1-0.2-0.1-0.4-0.2c-0.3-0.1-1.2-0.1-1.5-0.1h0
			c-0.3-1.8-1.1-2-1.3-2c-0.3,0-0.5,0.2-0.7,0.5C40.1,24.5,40.2,24.3,40.2,24.2"/>
		<linearGradient id="SVGID_4_" gradientUnits="userSpaceOnUse" x1="40.2248" y1="6.0672" x2="64.1585" y2="48.1426">
			<stop  offset="0" style="stop-color:#BE9121"/>
			<stop  offset="0.1" style="stop-color:#FFD900"/>
			<stop  offset="0.3" style="stop-color:#FFD900"/>
			<stop  offset="0.45" style="stop-color:#BE9121"/>
			<stop  offset="0.6027" style="stop-color:#FFD900"/>
			<stop  offset="0.76" style="stop-color:#FFD900"/>
			<stop  offset="0.92" style="stop-color:#BE9121"/>
			<stop  offset="0.98" style="stop-color:#FFD900"/>
		</linearGradient>
		<path class="st4" d="M49.8,6.8c-5,5.6-9,6.2-14.2,6.5c-0.1,0-0.1,0-0.2,0.1c0,0-0.1,0.1,0,0.2c0.3,1.5,0.6,2.8,0.8,4.1
			c0,0.1,0.1,0.1,0.1,0.2c0,0,0,0,0.1,0c0.1,0,0.1,0,0.1-0.1c2.1-2.2,4.3-3.2,6.7-4c-5.2,2.7-6.5,6.1-6.5,8.7c0,3.5-0.9,5.7-2.9,6.9
			c-0.1,0-0.1,0.1-0.1,0.2c3.7,12.8,6.6,15.6,16.1,23c0,0,0.1,0,0.1,0c0,0,0.1,0,0.1,0c1.8-1.4,3.6-2.9,5.2-4.2
			c0.1-0.1,0.1-0.2,0-0.2c0-0.1-0.1-0.1-0.2-0.1c0,0,0,0-0.1,0c-1.5,0.5-3.2,0.7-5.3,0.7h-0.1c4.7-0.8,7.7-2.3,10-4.8c0,0,0,0,0,0
			c0.1-0.1,0.1-0.2,0-0.3c0-0.1-0.1-0.1-0.2-0.1c0,0-0.1,0-0.1,0c-3.6,1.8-7.1,2.6-11,2.6c-0.8,0-1.6,0-2.4-0.1
			c7.4-0.9,13.1-3.2,16.5-6.8c0,0,0,0,0-0.1c0-0.1,0-0.2,0-0.2c0,0-0.1,0-0.1,0c0,0-0.1,0-0.1,0c-4.2,2.8-8.3,4.2-13,4.2
			c2.2-0.4,5.3-1.3,8.4-3.2c4.3-2.6,7.1-6.1,8.3-10.4c0-0.1,0-0.2-0.1-0.2c-4.1-2.4-3.2-9-1.6-15.8c0-0.1,0-0.1,0-0.2
			c0,0-0.1-0.1-0.2-0.1c-5.2-0.2-9.2-0.8-14.2-6.5c0,0-0.1-0.1-0.2-0.1S49.9,6.8,49.8,6.8 M31.1,29.5c2.1-0.9,3.2-2.8,3.3-5.8
			c0.1-2.8-0.5-6.5-2-12.2C39.3,11.3,44,10.7,50,3.5c6,7.2,10.7,7.8,17.6,8.1c-1.5,5.6-2.2,9.4-2,12.2c0.1,3,1.2,4.9,3.3,5.8
			c-4.6,14.2-7.8,17-18.9,25C38.8,46.5,35.7,43.7,31.1,29.5"/>
		<linearGradient id="SVGID_6_" gradientUnits="userSpaceOnUse" x1="30.8298" y1="28.9584" x2="69.1621" y2="28.9584">
			<stop  offset="0" style="stop-color:#EFBE15"/>
			<stop  offset="1.959720e-02" style="stop-color:#EFBE15"/>
			<stop  offset="6.980160e-02" style="stop-color:#F4EFBC"/>
			<stop  offset="7.262891e-02" style="stop-color:#F1E9B3"/>
			<stop  offset="8.671513e-02" style="stop-color:#E5D18D"/>
			<stop  offset="0.1024" style="stop-color:#DABB6C"/>
			<stop  offset="0.1195" style="stop-color:#D0A84F"/>
			<stop  offset="0.1386" style="stop-color:#C99A38"/>
			<stop  offset="0.1605" style="stop-color:#C38E27"/>
			<stop  offset="0.1869" style="stop-color:#BF861A"/>
			<stop  offset="0.2225" style="stop-color:#BD8113"/>
			<stop  offset="0.3069" style="stop-color:#BC8011"/>
			<stop  offset="0.4562" style="stop-color:#F4EFBC"/>
			<stop  offset="0.591" style="stop-color:#EFBE15"/>
			<stop  offset="0.7094" style="stop-color:#BC8011"/>
			<stop  offset="0.8021" style="stop-color:#F4EFBC"/>
			<stop  offset="0.8955" style="stop-color:#EFBE15"/>
			<stop  offset="0.9526" style="stop-color:#BC8011"/>
			<stop  offset="1" style="stop-color:#BC8011"/>
		</linearGradient>
		<path class="st5" d="M47.2,39.7L47.2,39.7L47.2,39.7z M57.2,37.9L57.2,37.9L57.2,37.9z M59.1,35.1L59.1,35.1L59.1,35.1z
			 M55.2,33.4L55.2,33.4L55.2,33.4z M60.2,32.9L60.2,32.9L60.2,32.9z M60.8,27.7L60.8,27.7L60.8,27.7z M50.1,18.3L50.1,18.3
			L50.1,18.3z M49.8,15.2L49.8,15.2L49.8,15.2z M40.2,32.9L40.2,32.9L40.2,32.9C40.2,32.9,40.2,32.9,40.2,32.9
			C40.2,32.9,40.2,32.9,40.2,32.9 M56,21.9c1.9-2.3,3-5.4,2.8-7.7c0.9,0.7,1.5,1.6,1.7,2.8c0.3,1.6,0,3.2-1,4.5
			c-0.1,0.1-0.1,0.2,0,0.2c0,0.1,0.1,0.1,0.2,0.1c0,0,0,0,0.1,0c0.8-0.2,1.7-1.9,2.2-3c0.3,4-2.7,6.7-4.1,7.6
			c-0.1,0.1-0.1,0.2-0.1,0.2c0,0.1,0.1,0.1,0.2,0.1c0,0,0,0,0,0c1.3-0.3,2.6-1.2,3.4-2.3c-0.3,1.2-1.4,3.2-4.7,4.9
			c-0.1,0-0.1,0.1-0.1,0.2c0,0.1,0.1,0.2,0.2,0.2c0.1,0,0.2,0,0.3,0c0.9,0,2.2-0.7,3.1-1.3c-0.8,1.5-3.1,3.9-7.4,3.9
			c-0.1,0-0.1,0-0.2,0h0c-0.1,0-0.1,0-0.2,0.1c0,0.1,0,0.2,0,0.2c0.4,0.6,1.1,0.9,1.7,0.9c-0.4,0.1-1,0.2-1.7,0.2
			c-1.2,0-3.4-0.3-5.1-1.9c0,0-0.1-0.1-0.1-0.1c0,0-0.1,0-0.1,0C47,32,47,32.1,47,32.2c1.4,2.2,4.3,2.6,5.9,2.6c0.1,0,0.2,0,0.2,0
			c2.7,0,5-0.8,6.3-1.3c-1.2,1.4-3.2,2.2-6,2.5c-0.1,0-0.2,0.1-0.2,0.2c0,0.1,0,0.2,0.1,0.2c0.3,0.2,1,0.2,1.5,0.2
			c1,0,2.5-0.2,3.5-0.7c-0.5,0.6-1.4,1.3-3.1,1.4c-0.1,0-0.2,0.1-0.2,0.1c0,0.1,0,0.2,0.1,0.2c0.3,0.2,0.8,0.3,1.2,0.4
			c-0.5,0.1-1.1,0.2-1.7,0.2c-0.7,0-1.5-0.1-2.2-0.3c0,0,0,0-0.1,0c-0.1,0-0.1,0-0.1,0.1c-0.1,0.1-0.1,0.1,0,0.2
			c0.1,0.2,0.5,0.8,1.2,1.1c-0.3,0.1-0.7,0.1-1.1,0.1c-1,0-2-0.4-3-1.1c0,0-0.1,0-0.1,0c-0.1,0-0.1,0-0.2,0.1l0,0
			c-0.1,0.2-0.4,0.5-1,0.6L48,39c-0.7,0.1-1,0.2-1.5,0.6c-0.1,0-0.1,0.1-0.1,0.2c0,0,0,0,0,0.1c-0.2,0-0.4,0.1-0.7,0.1
			c-0.1,0-0.1,0-0.2,0h0c-0.1,0-0.1,0-0.1,0.1c0,0-0.1,0.1-0.1,0.2c0,0,0,0.1,0,0.1c-0.1,0-0.2,0-0.4-0.1c-0.2,0-0.4-0.1-0.6-0.1
			c-0.1,0-0.1,0-0.2,0c-0.3,0.1-0.7,0.2-0.9,0.5c-0.1,0.2-0.1,0.4-0.1,0.6c0,0.1,0.1,0.2,0.1,0.4c0.1,0.3,0.2,0.8,0.2,0.9
			c0,0.1-0.2,0.1-0.5,0.2c0.1-0.2,0.1-0.4,0.1-0.5c0-0.3-0.2-1.1-2.1-1.8c-0.1,0-0.2-0.1-0.3-0.1c-0.2,0-0.3,0.1-0.4,0.2
			c0.1-0.3,0.3-0.5,0.4-0.6c0.1-0.1,0.1-0.2,0-0.2c-0.1-0.2-0.3-0.3-0.5-0.3c-0.2,0-0.5,0.2-0.6,0.5c-0.1,0.2-0.2,0.5-0.2,0.7
			c0-0.1-0.1-0.2-0.1-0.3c0-0.2,0-0.4,0.2-0.7c0.4-0.7,1.2-1,1.5-1.1c0.3,0.7,0.7,1.5,1.3,1.6c0.1,0,0.1,0,0.2,0
			c0.6,0,0.8-0.4,1-0.7c0-0.1,0.1-0.1,0.1-0.2c0.1-0.3,0.2-0.6,0.3-0.9c0.1-0.3,0.1-0.5,0.2-0.6c0.3-0.3,0.4-1,0.3-1.2
			c0-0.1-0.1-0.1-0.2-0.1h0c-0.1,0-0.2,0.1-0.2,0.1c-0.1,0.3-0.2,0.6-0.4,0.7c0,0-0.1,0-0.1,0c-0.3,0-0.5,0.1-0.8,0.4
			c-0.3,0.3-0.2,0.7-0.2,0.9c0,0.1,0,0.2,0,0.2c0,0,0,0,0,0c0,0,0-0.1,0-0.1c0-0.5-0.6-1.5-1.2-1.5c-0.1,0-0.2,0-0.3,0.1
			c0-0.1,0.1-0.2,0.1-0.2c0,0,0.1-0.1,0.1-0.2c0-0.1,0-0.1-0.1-0.2c-0.1-0.1-0.3-0.2-0.5-0.2c-0.1,0-0.2,0.1-0.3,0.1
			c0,0-0.1,0.1-0.1,0.1c0-0.2,0.1-0.3,0.1-0.4c0.1-0.1,0.4-0.2,0.6-0.3c0.2,0.5,0.8,1.1,1.3,1.2c0,0,0,0,0.1,0
			c0.4,0,0.5-0.4,0.7-0.8c0.1-0.3,0.3-0.6,0.5-0.9c0.4-0.5,0.5-1.3,0.3-2.1c-0.3-1-1.1-1.9-1.9-2.1c-0.1,0-0.2-0.1-0.3-0.1
			c-0.6,0-0.9,0.4-1.2,0.9c0.1-0.4,0-0.8-0.3-1.1c0,0-0.1,0-0.1,0c0,0-0.1,0-0.1,0c-0.6,0.3-1.8,1.5-1.7,2.3c0,0,0,0,0,0
			c-0.2-0.1-0.3-0.2-0.4-0.4c-0.3-0.6-0.1-1.6,0.1-2c0.4-0.6,0.4-0.9,0.4-1.1c0,0,0-0.1,0-0.1c0.1-0.8,0.6-1.7,1.3-2.2
			c0.9-0.7,2.1-0.8,2.8-0.8c0,0,0,0,0.1,0c0,0,0,0.1,0,0.2c0,0.1,0.1,0.1,0.2,0.1h0c0.1,0,0.2,0,0.2,0c0.8,0,1.4,0.2,1.9,0.5
			c0,0-0.1,0-0.1,0.1c-0.1,0.1-0.1,0.1-0.1,0.2c0,0.1,0.1,0.1,0.2,0.1c1.9,0.1,2.2,0.2,2.7,0.4c0.1,0.1,0.2,0.1,0.4,0.2
			c0.5,0.2,1,0.3,1.4,0.3c0.9,0,1.6-0.4,1.8-1.2c0.2-0.8,0-1.6-0.7-2.1c-0.2-0.2-0.8-0.4-1.4-0.4c-0.3,0-0.6,0.1-0.8,0.2
			c0.4-1,1.8-1.4,3.1-1.4c0.1,0,0.2,0,0.4,0c0.1,0,0.1,0,0.2,0C53.3,24.2,54.7,23.4,56,21.9 M52.1,24c0,0-0.1,0-0.1,0
			c-0.1,0-0.2,0-0.4,0c-1.8,0-3.4,0.7-3.4,2.1c0.3-0.4,0.8-0.6,1.2-0.6c0.5,0,1.1,0.2,1.3,0.4c1.2,0.8,0.9,2.9-1,2.9
			c-0.4,0-0.8-0.1-1.4-0.3c-0.8-0.3-0.8-0.5-3.1-0.6c0.1-0.1,0.3-0.1,0.5-0.1h0c-0.7-0.4-1.4-0.8-2.5-0.8c-0.1,0-0.2,0-0.2,0
			c0.1-0.1,0.3-0.2,0.8-0.2c0,0-0.4-0.1-1-0.1c-0.8,0-2,0.2-2.9,0.8c-0.8,0.6-1.3,1.5-1.4,2.4c0,0.3,0,0.4-0.4,1.1
			c-0.4,0.7-0.7,2.8,1.1,2.8c0,0,0.1,0,0.1,0c-1.5-0.2,0.3-2.1,1-2.4c0.4,0.3,0.3,0.9,0.1,1.2c-0.1-0.2-0.2-0.4-0.7-0.4
			c0.5,0.3,0.5,0.7,0.5,1c0.4-0.1,0.8-1.5,1.7-1.5c0.1,0,0.2,0,0.3,0c1.4,0.4,2.4,2.7,1.5,3.9c-0.6,0.7-0.7,1.6-1.1,1.6c0,0,0,0,0,0
			c-0.4-0.1-1.1-0.7-1.2-1.2c-0.2,0-0.7,0.2-0.9,0.3c-0.3,0.3-0.2,1.2,0.2,1.5c-0.1-0.8,0-1,0.2-1c0.1,0,0.3,0.1,0.3,0.2
			c-0.2,0.2-0.4,0.8-0.2,1.2c0.1-0.5,0.3-0.7,0.4-0.7c0.5,0,1.3,1.5,0.8,1.5c0,0-0.1,0-0.2-0.1c0.1,0.1,0.2,0.2,0.4,0.2
			c0.1,0,0.1,0,0.2,0c0.3-0.1-0.1-0.8,0.3-1.2c0.2-0.3,0.4-0.4,0.6-0.4c0.1,0,0.1,0,0.2,0c0.2-0.2,0.4-0.5,0.5-0.9
			c0.1,0.1,0,0.7-0.2,1c-0.3,0.3-0.3,1-0.6,1.6c-0.2,0.4-0.3,0.8-0.9,0.8c0,0-0.1,0-0.1,0c-0.7-0.1-1.2-1.6-1.2-1.7
			c-0.1,0-1.2,0.3-1.8,1.2c-0.6,0.9,0.3,1.6,0.5,1.8c-0.5-0.9,0-1.7,0.4-1.7c0.1,0,0.2,0.1,0.3,0.2c-0.3,0.3-0.8,1.2-0.3,2.1
			c-0.1-1.1,0.2-1.3,0.5-1.3c0.1,0,0.2,0,0.2,0c1.8,0.6,1.9,1.4,1.9,1.6c0,0.2,0,0.6-0.5,0.6c0,0,0,0,0,0c0.1,0.1,0.3,0.1,0.4,0.1
			c0.4,0,0.8-0.1,0.9-0.3c0.2-0.2-0.1-1-0.2-1.4c-0.1-0.4,0.4-0.8,0.8-0.9c0.1,0,0.1,0,0.2,0c0.3,0,0.7,0.2,1.1,0.2
			c0.1,0,0.3,0,0.4-0.1c-0.3-0.1-0.4-0.2-0.4-0.2c0.1,0,0.1,0,0.2,0c0.5,0,1.2-0.1,1.5-0.4c-0.2,0.1-0.3,0.1-0.4,0.1
			c-0.1,0-0.1,0-0.2,0c0.5-0.4,0.8-0.4,1.5-0.6c0.7-0.1,1-0.5,1.1-0.7c1.2,0.9,2.2,1.1,3.1,1.1c0.9,0,1.6-0.3,1.9-0.4
			c-1.1-0.1-1.6-0.9-1.7-1.2c0.8,0.2,1.5,0.3,2.2,0.3c1.1,0,2-0.2,2.5-0.6c-0.1,0-0.1,0-0.2,0c-0.6,0-1.4-0.1-1.7-0.4
			c2.4-0.2,3.5-1.6,3.8-2.4c-0.6,0.9-2.7,1.3-4.2,1.3c-0.6,0-1.1-0.1-1.4-0.2c4.9-0.5,6.2-2.7,6.6-3.3c-0.8,0.5-3.7,1.7-7,1.7
			c-0.1,0-0.2,0-0.2,0c-3.4-0.1-5-1.4-5.8-2.5c1.6,1.5,3.6,2,5.2,2c1.4,0,2.5-0.3,2.7-0.6c-0.2,0.1-0.4,0.1-0.6,0.1
			c-0.7,0-1.5-0.3-2-0.9c0.1,0,0.1,0,0.2,0c5.1,0,7.5-3.3,8-4.9c-0.7,0.8-2.5,1.9-3.7,1.9c-0.1,0-0.2,0-0.3,0c4.6-2.3,5-5.4,5-6.1
			c-0.7,1.5-2.2,2.7-3.8,3.1c1.4-1,4.8-4,4.1-8.5c-0.9,2-1.8,3.4-2.4,3.6c1.7-2.4,1.5-6.2-1.2-7.9C59.2,17.9,55.3,24,52.1,24
			 M40.2,24.2c0.1-0.3,0.5-0.4,0.9-0.5c0.1,0,0.1,0,0.1-0.1c0,0,0-0.1,0-0.2c-0.9-3.4,1.7-5.3,4.2-7.2c1.5-1.1,2.8-2.1,3.6-3.4
			c0,1.6-1,3.3-2.5,4.3c-0.1,0.1-0.1,0.2-0.1,0.2c0,0.1,0.1,0.1,0.2,0.1c0,0,0,0,0,0c1.2-0.2,1.9-0.5,2.8-1.7
			c-0.3,1.8-0.8,2.1-1.7,2.7c-0.1,0.1-0.2,0.2-0.4,0.3c-0.1,0.1-0.1,0.1-0.1,0.2c0,0.1,0.1,0.1,0.2,0.2c0.1,0,0.3,0,0.5,0
			c0.5,0,0.9-0.1,1.3-0.3c-0.6,0.5-1.6,0.8-2.2,1c-0.2,0.1-0.4,0.1-0.6,0.2c-0.1,0-0.1,0.1-0.1,0.2c0,0.1,0.1,0.1,0.2,0.1
			c0,0,0,0,0,0c0.3-0.1,0.7-0.1,1-0.1c1.1,0,2.1,0.4,2.7,1c0.2,0.2,0.3,0.4,0.4,0.6c-0.5-0.3-1.2-0.5-2-0.5c-0.7,0-1.9,0.1-2.7,1.1
			c-0.9,1.2-1,3.1-0.6,4.3c-0.4-0.2-0.9-0.4-1.5-0.5c-0.1-0.1-0.2-0.1-0.4-0.2c-0.3-0.1-1.2-0.1-1.5-0.1h0c-0.3-1.8-1.1-2-1.3-2
			c-0.3,0-0.5,0.2-0.7,0.5C40.1,24.5,40.2,24.3,40.2,24.2 M41.2,23.5c-1.7,0.2-1.2,1.6-1,1.9c0.1-0.6,0.4-1,0.7-1
			c0.4,0,0.9,0.6,1.1,2c0,0,0.1,0,0.2,0c0.4,0,1.2,0,1.5,0.1c0.3,0.1,0.4,0.2,0.4,0.2c1.3,0.2,1.9,0.8,2.1,0.9
			c-0.7-0.9-0.8-3.3,0.3-4.7c0.6-0.8,1.6-1.1,2.5-1.1c1,0,2,0.3,2.3,0.8c0-1.1-1.4-2.3-3.4-2.3c-0.3,0-0.7,0-1,0.1
			c0.5-0.3,3-0.7,3.3-2.1c-0.7,0.7-1.4,0.8-2,0.8c-0.2,0-0.4,0-0.5,0c1.3-0.9,1.9-1.1,2.2-3.9c-1.2,1.6-1.7,2-3.1,2.2
			c1.8-1.2,2.9-3.3,2.5-5.3C48,16.1,39.6,17.7,41.2,23.5 M35.6,13.5c5.5-0.3,9.4-1,14.3-6.5c4.9,5.5,8.8,6.3,14.3,6.5
			c-1.8,8-2.1,13.7,1.7,16c-2.6,9.7-13,13.2-18.8,13.8c0.6,0,1.2,0.1,1.8,0.1c4.9,0,9.2-1.4,13.6-4.3c0,0,0,0,0,0
			C58.7,43.2,52,45.4,44.3,46c1.5,0.2,3,0.3,4.3,0.3c4.6,0,8.1-1.1,11.1-2.6c0,0,0,0,0,0c-2.3,2.5-5.5,4.3-12.1,5.1
			c0.8,0.1,1.6,0.1,2.3,0.1c2.1,0,3.8-0.2,5.3-0.7c-1.5,1.3-3.2,2.6-5.2,4.2c-9.8-7.6-12.5-10.3-16-22.9c2.2-1.3,3-3.7,3-7
			c0.1-6.3,7.2-9,9.5-9.8c-3.8,1-7,1.8-10,5C36.3,16.4,36,15,35.6,13.5 M49.8,6.8c-5,5.6-9,6.2-14.2,6.5c-0.1,0-0.1,0-0.2,0.1
			c0,0-0.1,0.1,0,0.2c0.3,1.5,0.6,2.8,0.8,4.1c0,0.1,0.1,0.1,0.1,0.2c0,0,0,0,0.1,0c0.1,0,0.1,0,0.1-0.1c2.1-2.2,4.3-3.2,6.7-4
			c-5.2,2.7-6.5,6.1-6.5,8.7c0,3.5-0.9,5.7-2.9,6.9c-0.1,0-0.1,0.1-0.1,0.2c3.7,12.8,6.6,15.6,16.1,23c0,0,0.1,0,0.1,0
			c0,0,0.1,0,0.1,0c1.8-1.4,3.6-2.9,5.2-4.2c0.1-0.1,0.1-0.2,0-0.2c0-0.1-0.1-0.1-0.2-0.1c0,0,0,0-0.1,0c-1.5,0.5-3.2,0.7-5.3,0.7
			h-0.1c4.7-0.8,7.7-2.3,10-4.8c0,0,0,0,0,0c0.1-0.1,0.1-0.2,0-0.3c0-0.1-0.1-0.1-0.2-0.1c0,0-0.1,0-0.1,0c-3.6,1.8-7.1,2.6-11,2.6
			c-0.8,0-1.6,0-2.4-0.1c7.4-0.9,13.1-3.2,16.5-6.8c0,0,0,0,0-0.1c0-0.1,0-0.2,0-0.2c0,0-0.1,0-0.1,0c0,0-0.1,0-0.1,0
			c-4.2,2.8-8.3,4.2-13,4.2c2.2-0.4,5.3-1.3,8.4-3.2c4.3-2.6,7.1-6.1,8.3-10.4c0-0.1,0-0.2-0.1-0.2c-4.1-2.4-3.2-9-1.6-15.8
			c0-0.1,0-0.1,0-0.2c0,0-0.1-0.1-0.2-0.1c-5.2-0.2-9.2-0.8-14.2-6.5c0,0-0.1-0.1-0.2-0.1S49.9,6.8,49.8,6.8 M31.1,29.5
			c2.1-0.9,3.2-2.8,3.3-5.8c0.1-2.8-0.5-6.5-2-12.2C39.3,11.3,44,10.7,50,3.5c6,7.2,10.7,7.8,17.6,8.1c-1.5,5.6-2.2,9.4-2,12.2
			c0.1,3,1.2,4.9,3.3,5.8c-4.6,14.2-7.8,17-18.9,25C38.8,46.5,35.7,43.7,31.1,29.5 M32.1,11.3c2.9,10.6,3.1,16.4-1.3,18.1
			c4.7,14.5,7.8,17.2,19.2,25.4c11.4-8.2,14.5-10.8,19.2-25.4c-4.4-1.7-4.2-7.5-1.3-18.1c-7-0.2-11.7-0.7-17.9-8.2
			C43.8,10.7,39.1,11.1,32.1,11.3"/>
	</g>
</g>
</svg>
